<svg width="24" height="24" viewBox="0 0 24 24" fill="none" xmlns="http://www.w3.org/2000/svg">
<path d="M18.8748 15.6087C18.1229 17.1293 16.9031 18.3687 15.3947 19.1448C13.8974 19.914 12.1899 20.1737 10.5315 19.8843C8.86815 19.5916 7.34418 18.7683 6.18747 17.5376C5.02038 16.295 4.27723 14.7144 4.06478 13.0229C3.84942 11.3275 4.17415 9.60743 4.99279 8.10727C5.80393 6.61853 7.07187 5.42974 8.60973 4.71611C10.1371 4.00869 11.8537 3.81894 13.4987 4.17566C15.1432 4.53211 16.4907 5.34279 17.6054 6.62458C17.7397 6.76681 18.2588 7.34104 18.6899 8.20772" stroke="white" stroke-width="2" stroke-linecap="round" stroke-linejoin="round"/>
<path d="M14.7275 8.27776L19.2076 9.084L19.9996 4.52393" stroke="white" stroke-width="2" stroke-linecap="round" stroke-linejoin="round"/>
</svg>
