<svg width="48" height="48" viewBox="0 0 48 48" fill="none" xmlns="http://www.w3.org/2000/svg">
<path d="M47.5254 14.4021C47.5254 14.4021 47.0566 11.0925 45.6128 9.63925C43.7845 7.72661 41.7406 7.71723 40.8031 7.60472C34.09 7.11719 24.0112 7.11719 24.0112 7.11719H23.9924C23.9924 7.11719 13.9135 7.11719 7.20054 7.60472C6.26297 7.71723 4.21907 7.72661 2.3908 9.63925C0.946946 11.0925 0.487536 14.4021 0.487536 14.4021C0.487536 14.4021 0 18.293 0 22.1746V25.8123C0 29.6939 0.478161 33.5848 0.478161 33.5848C0.478161 33.5848 0.946946 36.8944 2.38143 38.3476C4.20969 40.2603 6.60987 40.1947 7.6787 40.4009C11.5227 40.7666 24.0018 40.8791 24.0018 40.8791C24.0018 40.8791 34.09 40.8603 40.8031 40.3822C41.7406 40.2697 43.7845 40.2603 45.6128 38.3476C47.0566 36.8944 47.5254 33.5848 47.5254 33.5848C47.5254 33.5848 48.0036 29.7032 48.0036 25.8123V22.1746C48.0036 18.293 47.5254 14.4021 47.5254 14.4021ZM19.042 30.2283V16.7367L32.0086 23.5059L19.042 30.2283Z" fill="#FF0302"/>
</svg>
